<mxfile host="65bd71144e">
    <diagram id="30cqZOsHphtampsLao1m" name="Page-1">
        <mxGraphModel dx="900" dy="2319" grid="1" gridSize="10" guides="1" tooltips="1" connect="1" arrows="1" fold="1" page="1" pageScale="1" pageWidth="827" pageHeight="1169" math="0" shadow="0">
            <root>
                <mxCell id="0"/>
                <mxCell id="1" parent="0"/>
                <mxCell id="7QeoW3PtA5kfW4suaYwI-1" value="Клиент" style="swimlane;fontStyle=0;childLayout=stackLayout;horizontal=1;startSize=30;horizontalStack=0;resizeParent=1;resizeParentMax=0;resizeLast=0;collapsible=1;marginBottom=0;" parent="1" vertex="1">
                    <mxGeometry x="560" y="-1120" width="200" height="150" as="geometry"/>
                </mxCell>
                <mxCell id="7QeoW3PtA5kfW4suaYwI-2" value="🔑 Серия и номер паспорта" style="text;strokeColor=none;fillColor=none;align=left;verticalAlign=middle;spacingLeft=4;spacingRight=4;overflow=hidden;points=[[0,0.5],[1,0.5]];portConstraint=eastwest;rotatable=0;" parent="7QeoW3PtA5kfW4suaYwI-1" vertex="1">
                    <mxGeometry y="30" width="200" height="30" as="geometry"/>
                </mxCell>
                <mxCell id="7QeoW3PtA5kfW4suaYwI-3" value="ФИО" style="text;strokeColor=none;fillColor=none;align=left;verticalAlign=middle;spacingLeft=4;spacingRight=4;overflow=hidden;points=[[0,0.5],[1,0.5]];portConstraint=eastwest;rotatable=0;" parent="7QeoW3PtA5kfW4suaYwI-1" vertex="1">
                    <mxGeometry y="60" width="200" height="30" as="geometry"/>
                </mxCell>
                <mxCell id="7QeoW3PtA5kfW4suaYwI-4" value="Дата рождения клиента" style="text;strokeColor=none;fillColor=none;align=left;verticalAlign=middle;spacingLeft=4;spacingRight=4;overflow=hidden;points=[[0,0.5],[1,0.5]];portConstraint=eastwest;rotatable=0;" parent="7QeoW3PtA5kfW4suaYwI-1" vertex="1">
                    <mxGeometry y="90" width="200" height="30" as="geometry"/>
                </mxCell>
                <mxCell id="7QeoW3PtA5kfW4suaYwI-5" value="Место прописки" style="text;strokeColor=none;fillColor=none;align=left;verticalAlign=middle;spacingLeft=4;spacingRight=4;overflow=hidden;points=[[0,0.5],[1,0.5]];portConstraint=eastwest;rotatable=0;" parent="7QeoW3PtA5kfW4suaYwI-1" vertex="1">
                    <mxGeometry y="120" width="200" height="30" as="geometry"/>
                </mxCell>
                <mxCell id="nE2u78lI7XiJY94E4rEj-1" value="Абонент" style="swimlane;fontStyle=0;childLayout=stackLayout;horizontal=1;startSize=26;horizontalStack=0;resizeParent=1;resizeParentMax=0;resizeLast=0;collapsible=1;marginBottom=0;flipH=1;flipV=0;" parent="1" vertex="1">
                    <mxGeometry x="300" y="-1120" width="180" height="130" as="geometry"/>
                </mxCell>
                <mxCell id="nE2u78lI7XiJY94E4rEj-2" value="🔑 Абонентский счёт" style="text;strokeColor=none;fillColor=none;align=left;verticalAlign=top;spacingLeft=4;spacingRight=4;overflow=hidden;rotatable=0;points=[[0,0.5],[1,0.5]];portConstraint=eastwest;" parent="nE2u78lI7XiJY94E4rEj-1" vertex="1">
                    <mxGeometry y="26" width="180" height="26" as="geometry"/>
                </mxCell>
                <mxCell id="nE2u78lI7XiJY94E4rEj-3" value="Серия и номер паспорта" style="text;strokeColor=none;fillColor=none;align=left;verticalAlign=top;spacingLeft=4;spacingRight=4;overflow=hidden;rotatable=0;points=[[0,0.5],[1,0.5]];portConstraint=eastwest;" parent="nE2u78lI7XiJY94E4rEj-1" vertex="1">
                    <mxGeometry y="52" width="180" height="26" as="geometry"/>
                </mxCell>
                <mxCell id="nE2u78lI7XiJY94E4rEj-4" value="Дата заключения договора" style="text;strokeColor=none;fillColor=none;align=left;verticalAlign=top;spacingLeft=4;spacingRight=4;overflow=hidden;rotatable=0;points=[[0,0.5],[1,0.5]];portConstraint=eastwest;" parent="nE2u78lI7XiJY94E4rEj-1" vertex="1">
                    <mxGeometry y="78" width="180" height="26" as="geometry"/>
                </mxCell>
                <mxCell id="2" value="Дата расторжения договора" style="text;strokeColor=none;fillColor=none;align=left;verticalAlign=top;spacingLeft=4;spacingRight=4;overflow=hidden;rotatable=0;points=[[0,0.5],[1,0.5]];portConstraint=eastwest;" parent="nE2u78lI7XiJY94E4rEj-1" vertex="1">
                    <mxGeometry y="104" width="180" height="26" as="geometry"/>
                </mxCell>
                <mxCell id="82YLLKQIkR0sXpYlXkWM-12" value="" style="endArrow=classic;html=1;exitX=0;exitY=0.5;exitDx=0;exitDy=0;startArrow=classic;startFill=1;edgeStyle=orthogonalEdgeStyle;elbow=vertical;rounded=0;entryX=1;entryY=0.5;entryDx=0;entryDy=0;" parent="1" source="nE2u78lI7XiJY94E4rEj-2" target="7" edge="1">
                    <mxGeometry width="50" height="50" relative="1" as="geometry">
                        <mxPoint x="180" y="-640" as="sourcePoint"/>
                        <mxPoint x="490" y="-650" as="targetPoint"/>
                        <Array as="points">
                            <mxPoint x="260" y="-1081"/>
                            <mxPoint x="260" y="-1075"/>
                        </Array>
                    </mxGeometry>
                </mxCell>
                <mxCell id="82YLLKQIkR0sXpYlXkWM-13" value="" style="endArrow=doubleBlock;html=1;entryX=1;entryY=0.5;entryDx=0;entryDy=0;exitX=0;exitY=0.5;exitDx=0;exitDy=0;startArrow=classic;startFill=1;edgeStyle=orthogonalEdgeStyle;elbow=vertical;rounded=0;endFill=1;strokeWidth=1;" parent="1" source="7QeoW3PtA5kfW4suaYwI-2" target="nE2u78lI7XiJY94E4rEj-3" edge="1">
                    <mxGeometry width="50" height="50" relative="1" as="geometry">
                        <mxPoint x="330" y="-861" as="sourcePoint"/>
                        <mxPoint x="250" y="-865" as="targetPoint"/>
                        <Array as="points">
                            <mxPoint x="520" y="-1075"/>
                            <mxPoint x="520" y="-1055"/>
                        </Array>
                    </mxGeometry>
                </mxCell>
                <mxCell id="6" value="SIM-карта" style="swimlane;fontStyle=0;childLayout=stackLayout;horizontal=1;startSize=30;horizontalStack=0;resizeParent=1;resizeParentMax=0;resizeLast=0;collapsible=1;marginBottom=0;" vertex="1" parent="1">
                    <mxGeometry x="40" y="-1120" width="180" height="150" as="geometry"/>
                </mxCell>
                <mxCell id="7" value="🔑 Абонентский счёт" style="text;align=left;verticalAlign=middle;spacingLeft=4;spacingRight=4;overflow=hidden;points=[[0,0.5],[1,0.5]];portConstraint=eastwest;rotatable=0;" vertex="1" parent="6">
                    <mxGeometry y="30" width="180" height="30" as="geometry"/>
                </mxCell>
                <mxCell id="8" value="Баланс на абонентском счёте" style="text;align=left;verticalAlign=middle;spacingLeft=4;spacingRight=4;overflow=hidden;points=[[0,0.5],[1,0.5]];portConstraint=eastwest;rotatable=0;" vertex="1" parent="6">
                    <mxGeometry y="60" width="180" height="30" as="geometry"/>
                </mxCell>
                <mxCell id="9" value="Телефонный номер" style="text;align=left;verticalAlign=middle;spacingLeft=4;spacingRight=4;overflow=hidden;points=[[0,0.5],[1,0.5]];portConstraint=eastwest;rotatable=0;" vertex="1" parent="6">
                    <mxGeometry y="90" width="180" height="30" as="geometry"/>
                </mxCell>
                <mxCell id="10" value="Подключённый тариф" style="text;align=left;verticalAlign=middle;spacingLeft=4;spacingRight=4;overflow=hidden;points=[[0,0.5],[1,0.5]];portConstraint=eastwest;rotatable=0;" vertex="1" parent="6">
                    <mxGeometry y="120" width="180" height="30" as="geometry"/>
                </mxCell>
            </root>
        </mxGraphModel>
    </diagram>
</mxfile>